# ProBuilder 4.5.0
# https://unity3d.com/unity/features/worldbuilding/probuilder
# 20/05/2021 12:30:15 AM

mtllib ./sculpture.mtl
o sculpture

g sculpture
v 0.8438416 -1.7 1.063855
v -1.84384 -1.7 1.063855
v 0 1 0.6
v -1 1 0.6
v -1.84384 -1.7 -2.063855
v -1 1 -1.6
v 0.8438416 -1.7 -2.063855
v 0 1 -1.6

vt 0.8438416 -1.855584
vt -1.84384 -1.855584
vt 0 0.8839709
vt -1 0.8839709
vt 1.063855 -2.172625
vt -2.063855 -2.172625
vt 0.6 0.6561671
vt -1.6 0.6561671
vt 1.84384 -2.024902
vt -0.8438416 -2.024902
vt 1 0.7146531
vt 0 0.7146531
vt 2.063855 -1.874322
vt -1.063855 -1.874322
vt 1.6 0.9544708
vt -0.6 0.9544708
vt 0 0.6
vt 1 0.6
vt 0 -1.6
vt 1 -1.6
vt 0.8438416 -2.063855
vt -1.84384 -2.063855
vt 0.8438416 1.063855
vt -1.84384 1.063855

vn 0 0.1693177 0.9855615
vn -0.954471 0.2983039 0
vn 0 0.1693177 -0.9855615
vn 0.9544708 0.2983045 0
vn 0 1 0
vn 0 -1 0

usemtl New_Material
f 3/3/1 2/2/1 1/1/1
f 3/3/1 4/4/1 2/2/1
f 4/7/2 5/6/2 2/5/2
f 4/7/2 6/8/2 5/6/2
f 6/11/3 7/10/3 5/9/3
f 6/11/3 8/12/3 7/10/3
f 8/15/4 1/14/4 7/13/4
f 8/15/4 3/16/4 1/14/4
f 8/19/5 4/18/5 3/17/5
f 8/19/5 6/20/5 4/18/5
f 1/23/6 5/22/6 7/21/6
f 1/23/6 2/24/6 5/22/6

